<?xml version="1.0" standalone="no"?>
<!DOCTYPE svg PUBLIC "-//W3C//DTD SVG 20010904//EN"
 "http://www.w3.org/TR/2001/REC-SVG-20010904/DTD/svg10.dtd">
<svg version="1.0" xmlns="http://www.w3.org/2000/svg"
 width="512.000000pt" height="512.000000pt" viewBox="0 0 512.000000 512.000000"
 preserveAspectRatio="xMidYMid meet">
<metadata>
Created by potrace 1.11, written by Peter Selinger 2001-2013
</metadata>
<g transform="translate(0.000000,512.000000) scale(0.100000,-0.100000)"
fill="#000000" stroke="none">
<path d="M4305 5061 c-42 -11 -125 -55 -156 -83 -75 -69 -118 -164 -125 -278
-16 -273 2 -245 -441 -690 l-363 -365 17 55 c9 30 17 66 17 79 1 23 0 24 -89
22 -140 -3 -252 -34 -350 -96 -27 -18 -106 -82 -173 -144 -68 -61 -127 -111
-130 -111 -4 0 -19 -11 -34 -25 -39 -36 -209 -144 -313 -199 -241 -127 -493
-206 -800 -251 -22 -4 -51 -8 -65 -11 -14 -2 -45 -6 -70 -10 -66 -8 -221 -50
-298 -80 -100 -39 -250 -119 -317 -169 -101 -75 -115 -87 -196 -168 -215 -215
-356 -501 -403 -818 -14 -95 -15 -347 -1 -424 37 -214 119 -436 215 -576 22
-32 40 -63 40 -68 0 -5 3 -11 8 -13 4 -2 29 -30 57 -63 192 -230 449 -396 745
-479 209 -58 496 -63 705 -11 33 9 68 17 78 20 10 2 46 14 80 26 361 128 655
390 827 737 43 88 95 228 106 292 3 14 12 54 20 90 9 36 17 74 20 85 2 11 6
34 10 50 10 50 70 247 88 290 7 17 24 57 37 90 79 202 248 485 398 665 38 46
150 171 239 269 13 14 51 66 84 116 l60 90 -239 3 c-131 1 -244 4 -252 7 -19
8 1 28 31 32 40 5 112 35 144 59 17 13 227 218 465 456 356 355 444 438 490
461 31 15 64 27 73 27 10 0 25 4 34 9 9 5 67 12 128 15 119 7 151 13 205 41
158 82 239 262 195 436 -30 117 -105 201 -231 259 -72 33 -83 45 -126 135 -41
85 -108 153 -186 191 -47 22 -75 28 -143 30 -47 2 -98 0 -115 -5z"/>
</g>
</svg>
